<svg id="Layer_5" enable-background="new 0 0 64 64" height="512" viewBox="0 0 64 64" width="512" xmlns="http://www.w3.org/2000/svg"><g><g><g><path d="m22 55c1.1 0 2 .9 2 2s-.9 2-2 2-2-.9-2-2c0-.26.05-.51.14-.74.3-.74 1.02-1.26 1.86-1.26z" fill="#ff826e"/></g><g><path d="m42 5c1.1 0 2 .9 2 2 0 .26-.05.51-.14.74-.3.74-1.02 1.26-1.86 1.26-1.1 0-2-.9-2-2s.9-2 2-2z" fill="#ff826e"/></g><g><circle cx="21" cy="21" fill="#ccd1d9" r="19"/></g><g><circle cx="21" cy="21" fill="#e6e9ed" r="15"/></g><g><path d="m10.01 31.18c.04-1.86 1.36-3.46 3.2-3.83l3.61-.73c.45-.13.85-.35 1.18-.65l3 4.03 3-4.03c.33.3.73.52 1.18.65l3.61.73c.79.16 1.48.54 2.02 1.08-2.23 1.87-4.02 4.23-5.2 6.93l-.1-.05c-1.42.45-2.94.69-4.51.69-4.34 0-8.26-1.85-11-4.81z" fill="#ff826e"/></g><g><path d="m25 18h-1.76c-1.47 0-2.92-.34-4.24-1-.74 0-1.38.4-1.73 1h-1.27c-.48 0-.92.17-1.26.45-.48-.84-.74-1.8-.74-2.79 0-3.13 2.53-5.66 5.66-5.66h2.68c1.56 0 2.98.63 4 1.66 1.03 1.02 1.66 2.44 1.66 4 0 .99-.26 1.95-.74 2.79-.34-.28-.78-.45-1.26-.45z" fill="#b27946"/></g><g><path d="m28 20c0 1.1-.9 2-2 2h-1.13c.09-.32.13-.65.13-1v-3h1c.48 0 .92.17 1.26.45.05.04.1.09.15.14.37.36.59.86.59 1.41z" fill="#f0d0b4"/></g><g><path d="m23.08 24.42c.14.6.46 1.15.92 1.55l-3 4.03-3-4.03c.46-.4.78-.95.92-1.55v-.01c1.92.59 2 .59 2.08.59.76 0 1.48-.21 2.08-.59z" fill="#f0d0b4"/></g><g><path d="m24.87 22c-.26 1.02-.91 1.88-1.79 2.41-.6.38-1.32.59-2.08.59-.08 0-.16 0-2.08-.59-.27-.16-.52-.36-.75-.58-.49-.5-.86-1.13-1.04-1.83-.09-.32-.13-.65-.13-1v-2c0-.36.1-.71.27-1 .35-.6.99-1 1.73-1 1.32.66 2.77 1 4.24 1h1.76v3c0 .35-.04.68-.13 1z" fill="#f0d0b4"/></g><g><path d="m17.27 18c-.17.29-.27.64-.27 1v2c0 .35.04.68.13 1h-1.13c-.55 0-1.05-.22-1.41-.59-.37-.36-.59-.86-.59-1.41 0-.62.29-1.18.74-1.55.34-.28.78-.45 1.26-.45z" fill="#f0d0b4"/></g><g><path d="m30.81 28.43c1.34-1.12 2.84-2.06 4.46-2.78 1.4-.63 2.89-1.1 4.45-1.36 1.07-.19 2.16-.29 3.28-.29 10.49 0 19 8.51 19 19s-8.51 19-19 19-19-8.51-19-19c0-1.12.1-2.22.29-3.29.26-1.52.71-2.98 1.32-4.35 1.18-2.7 2.97-5.06 5.2-6.93z" fill="#ffeaa7"/></g><g><path d="m54.12 34.88c.7.7 1.01 1.68.83 2.68-.11.63-.46 1.19-.91 1.64l-13.92 13.92c-.56.56-1.32.88-2.12.88s-1.56-.32-2.12-.88l-5.92-5.92c-.45-.45-.8-1.01-.91-1.64-.18-1 .13-1.98.83-2.68s1.68-1.01 2.68-.83c.63.11 1.19.46 1.64.91l3.8 3.8 11.8-11.8c.45-.45 1.01-.8 1.64-.91 1-.18 1.98.13 2.68.83z" fill="#b4dd7f"/></g></g><g><path d="m43 23c-.718 0-1.425.042-2.124.116.074-.702.124-1.408.124-2.116 0-11.028-8.972-20-20-20s-20 8.972-20 20 8.972 20 20 20c.708 0 1.414-.049 2.116-.123-.074.698-.116 1.406-.116 2.123 0 11.028 8.972 20 20 20s20-8.972 20-20-8.972-20-20-20zm-22 16c-9.925 0-18-8.075-18-18s8.075-18 18-18 18 8.075 18 18c0 .821-.072 1.639-.182 2.447-.722.154-1.426.355-2.117.585.191-.995.299-2.008.299-3.032 0-8.822-7.178-16-16-16s-16 7.178-16 16 7.178 16 16 16c1.024 0 2.036-.108 3.032-.299-.23.691-.43 1.395-.585 2.116-.809.11-1.626.183-2.447.183zm3.959-4.575c-1.281.377-2.61.575-3.959.575-3.891 0-7.413-1.598-9.952-4.168.182-1.243 1.103-2.246 2.358-2.5l3.693-.749c.23-.066.448-.158.659-.261l3.242 4.352 3.249-4.361c.231.114.471.216.729.289l3.616.73c.219.044.426.119.627.209-1.758 1.676-3.204 3.668-4.262 5.884zm-8.959-13.425c-.551 0-1-.449-1-1s.449-1 1-1zm.78-4h-.78c-.263 0-.514.045-.757.109-.154-.468-.243-.957-.243-1.452 0-2.568 2.089-4.657 4.657-4.657h2.687c2.567 0 4.656 2.089 4.656 4.657 0 .495-.089.984-.243 1.452-.243-.064-.494-.109-.757-.109h-1-1.764c-1.308 0-2.618-.309-3.789-.895l-.211-.105h-.236c-.883 0-1.67.391-2.22 1zm9.22 2c.551 0 1 .449 1 1s-.449 1-1 1zm-2 2c0 1.654-1.346 3-3 3s-3-1.346-3-3v-2c0-.486.349-.893.809-.982 1.38.643 2.905.982 4.427.982h.764zm-4.539 4.732c.488.16.999.268 1.539.268.541 0 1.052-.108 1.54-.268.056.097.116.192.181.284l-1.721 2.31-1.72-2.308c.064-.093.124-.188.181-.286zm11.37 1.432c-.552-.382-1.173-.658-1.842-.792l-3.54-.712c-.502-.143-.914-.479-1.17-.917.548-.481.999-1.067 1.296-1.743h.425c1.654 0 3-1.346 3-3 0-.64-.205-1.23-.547-1.718.355-.827.547-1.721.547-2.625 0-3.671-2.986-6.657-6.657-6.657h-2.687c-3.67 0-6.656 2.986-6.656 6.657 0 .905.192 1.798.547 2.626-.342.487-.547 1.077-.547 1.717 0 1.654 1.346 3 3 3h.424c.297.677.749 1.263 1.297 1.744-.252.436-.648.768-1.095.897l-3.616.73c-1.553.313-2.792 1.319-3.461 2.658-1.6-2.276-2.549-5.041-2.549-8.029 0-7.72 6.28-14 14-14s14 6.28 14 14c0 1.351-.201 2.68-.578 3.961-1.278.61-2.479 1.348-3.591 2.203zm12.169 33.836c-9.925 0-18-8.075-18-18s8.075-18 18-18 18 8.075 18 18-8.075 18-18 18z"/><path d="m57.562 27.223 1.967-.364c-.132-.709-.293-1.422-.479-2.118l-1.932.518c.173.645.322 1.306.444 1.964z"/><path d="m42 10c.866 0 1.641-.374 2.19-.964 5.708 3.041 10.178 8.204 12.331 14.297l1.886-.666c-2.337-6.614-7.21-12.21-13.426-15.473.004-.065.019-.128.019-.194 0-1.654-1.346-3-3-3s-3 1.346-3 3 1.346 3 3 3zm0-4c.551 0 1 .449 1 1s-.449 1-1 1-1-.449-1-1 .449-1 1-1z"/><path d="m6.438 36.777-1.967.364c.132.709.293 1.422.479 2.118l1.932-.518c-.173-.645-.322-1.306-.444-1.964z"/><path d="m22 54c-.866 0-1.641.374-2.19.964-5.707-3.041-10.177-8.204-12.331-14.297l-1.886.666c2.337 6.614 7.21 12.21 13.426 15.473-.004.065-.019.128-.019.194 0 1.654 1.346 3 3 3s3-1.346 3-3-1.346-3-3-3zm0 4c-.551 0-1-.449-1-1s.449-1 1-1 1 .449 1 1-.449 1-1 1z"/><path d="m54.829 34.172c-.001 0-.001 0 0 0-.941-.941-2.241-1.343-3.567-1.105-.786.142-1.535.551-2.167 1.183l-11.095 11.093-3.095-3.096c-.633-.631-1.382-1.04-2.166-1.181-1.327-.24-2.626.163-3.567 1.104s-1.344 2.241-1.105 3.567c.142.786.551 1.535 1.183 2.167l5.922 5.923c.755.757 1.759 1.173 2.828 1.173s2.073-.416 2.828-1.172l13.923-13.923c.632-.632 1.041-1.381 1.183-2.167.238-1.325-.164-2.625-1.105-3.566zm-.864 3.212c-.087.483-.39.869-.628 1.107l-13.923 13.923c-.755.756-2.072.756-2.828 0l-5.923-5.923c-.238-.239-.541-.625-.628-1.108-.121-.671.08-1.326.552-1.797.38-.381.882-.586 1.415-.586.125 0 .253.011.382.034.482.087.869.39 1.107.628l4.509 4.509 12.509-12.508c.239-.238.625-.541 1.108-.628.671-.121 1.326.08 1.797.551.471.471.672 1.126.551 1.798z"/></g></g></svg>