<svg id="filled_outline" height="512" viewBox="0 0 512 512" width="512" xmlns="http://www.w3.org/2000/svg" data-name="filled outline"><circle cx="328" cy="104" fill="#e8c8b3" r="32"/><path d="m274.156 112a52.737 52.737 0 0 1 37.29 15.446l48.554 48.554-16 32-24-16-16 48h-72l32-96-40 16v-32l30.57-12.228a52.735 52.735 0 0 1 19.586-3.772z" fill="#04957c"/><path d="m384 292.31v1.93a30.017 30.017 0 0 1 -5.74 17.65l-24.3 33.42-33.96 46.69-24-16 29.71-49.52 18.29-30.48h-72a31.991 31.991 0 0 1 -32-32v-24h64l40 16 21.14 8.46a29.987 29.987 0 0 1 18.86 27.85z" fill="#e8c8b3"/><path d="m280 296-24 40-12.96 19.44a31.864 31.864 0 0 1 -7.43 7.85l-51.26 38.45-40.35 30.26-16-24 80-64 13.91-25.04 26.09-46.96z" fill="#e8c8b3"/><path d="m274.343 400.971a10.627 10.627 0 0 0 3.443 11.658l34.214 27.371h5.578a18.422 18.422 0 0 0 18.422-18.422 18.426 18.426 0 0 0 -3.094-10.219l-12.906-19.359-24-16a43.183 43.183 0 0 0 -21.657 24.971z" fill="#e4e4e2"/><path d="m144 432v24l4.272 17.09a12 12 0 0 1 -11.641 14.91h-16.631l-16-24-4.888-24.438a20.778 20.778 0 0 1 11.088-22.662l17.8-8.9z" fill="#e4e4e2"/><path d="m224 160-56 26.2a14.3 14.3 0 0 1 -17.525-5.21 14.3 14.3 0 0 1 6.088-20.99l67.437-32z" fill="#e8c8b3"/><path d="m360.319 175.734 39.681-33.797a17.2 17.2 0 0 1 23.168 1.051 17.2 17.2 0 0 1 -.735 25.012l-46.591 41.918a22.479 22.479 0 0 1 -30.83-.906 1.986 1.986 0 0 1 -.372-2.292l15.174-30.348a2 2 0 0 1 .505-.638z" fill="#e8c8b3"/><path d="m280 296-24 40-32-16-2.09-1.04 26.09-46.96z" fill="#f3af3e"/><path d="m356.129 58.744c-.336.055-.667.121-1 .189a31.97 31.97 0 1 0 -18.959 26.358c.04.335.083.671.138 1.007a24 24 0 1 0 19.819-27.554z" fill="#533222"/><path d="m353.96 345.31-33.96 46.69-24-16 29.71-49.52z" fill="#dc4d41"/><path d="m184.35 401.74-40.35 30.26-16-24 40-32 16 24z" fill="#dc4d41"/><g fill="#aedee2"><path d="m184 280h-32a8 8 0 0 1 0-16h32a8 8 0 0 1 0 16z"/><path d="m120 280h-16a8 8 0 0 1 0-16h16a8 8 0 0 1 0 16z"/><path d="m128 224h-48a8 8 0 0 1 0-16h48a8 8 0 0 1 0 16z"/><path d="m48 224h-16a8 8 0 0 1 0-16h16a8 8 0 0 1 0 16z"/><path d="m144 328h-48a8 8 0 0 1 0-16h48a8 8 0 0 1 0 16z"/><path d="m64 328h-16a8 8 0 0 1 0-16h16a8 8 0 0 1 0 16z"/></g><path d="m344 256-16 40h-56a31.991 31.991 0 0 1 -32-32v-24h64z" fill="#fbb540"/><path d="m251.6 108.344-30.571 12.228c-.065.026-.123.064-.187.092-.09.039-.183.066-.272.108l-67.355 31.962a22.295 22.295 0 0 0 17.936 40.821c.08-.034.161-.07.24-.107l55.8-26.108 23.767-9.506-26.548 79.636a8 8 0 0 0 7.59 10.53v16a39.782 39.782 0 0 0 2.941 15.031l-33.169 59.706-78.109 62.487-17.047 8.524a28.839 28.839 0 0 0 -15.348 31.383l4.887 24.438a8 8 0 0 0 1.189 2.869l16 24a8 8 0 0 0 6.656 3.562h16.631a20 20 0 0 0 19.4-24.851l-4.031-16.134v-19.015l88.408-66.308a39.741 39.741 0 0 0 9.288-9.815s13.1-19.652 13.164-19.761l21.67-36.116h43.426.041.026 1.847l-39.588 65.981a50.819 50.819 0 0 0 -23.529 28.46 18.7 18.7 0 0 0 6.036 20.434l34.211 27.372a8 8 0 0 0 5 1.753h5.578a26.422 26.422 0 0 0 21.984-41.079l-9.815-14.721 54.984-75.6a37.759 37.759 0 0 0 7.269-22.355v-1.934a37.818 37.818 0 0 0 -23.888-35.282l-54.137-21.655 10.3-30.908 14.715 9.81c.119.132.236.266.363.393a30.521 30.521 0 0 0 41.837 1.2l46.557-41.886a25.2 25.2 0 0 0 -32.937-38.132l-34.374 29.277-22.419-22.419a40.3 40.3 0 0 0 28.783-29.009 32 32 0 0 0 -3.912-63.14q-.069-.5-.151-1a40 40 0 1 0 -68.87 33.588 39.851 39.851 0 0 0 -5.867 20.852c0 .535.026 1.069.047 1.6a61.16 61.16 0 0 0 -13.891-1.6 60.461 60.461 0 0 0 -22.556 4.344zm-35.6 46.567-51.248 23.978a6.3 6.3 0 0 1 -7.621-2.334 6.3 6.3 0 0 1 2.681-9.244l.181-.083 56.007-26.577zm-76.217 323.551a3.933 3.933 0 0 1 -3.152 1.538h-12.35l-12.747-19.121-4.577-22.886a12.805 12.805 0 0 1 6.815-13.935l11.489-5.744 10.739 16.108v21.578a7.977 7.977 0 0 0 .239 1.94l4.273 17.09a3.936 3.936 0 0 1 -.729 3.432zm6.183-57.936-7.241-10.861 27.459-21.965 7.85 11.776zm90.414-69.518a23.85 23.85 0 0 1 -5.569 5.882l-43.957 32.969-8.129-12.194 34.275-27.418a7.993 7.993 0 0 0 2-2.362l10.193-18.348 19.13 9.566zm16.571-25.477-19.987-9.994 12.178-21.921a39.89 39.89 0 0 0 20.989 9.95zm64.627 106.469h-2.771l-32.024-25.618a2.639 2.639 0 0 1 -.85-2.882 34.925 34.925 0 0 1 13.761-18.089l18.537 12.358 12.019 18.031a10.423 10.423 0 0 1 -8.672 16.2zm.469-50.917-5.631-3.754-5.632-3.754 21.474-35.789 14.33 9.554zm32.915-89.024a8 8 0 0 0 -6.962-4.059h-4.184l8.641-21.6 13.713 5.485a21.9 21.9 0 0 1 13.83 20.426v1.934a21.86 21.86 0 0 1 -4.208 12.939l-19.786 27.206-15.506-10.339 14.361-23.935a8 8 0 0 0 .101-8.057zm-17.361-31.6-11.017 27.541h-50.584a24.027 24.027 0 0 1 -24-24v-16h54.459zm32.821-79.413 38.7-32.961a9.2 9.2 0 0 1 11.961 13.97l-46.557 41.886a14.5 14.5 0 0 1 -16.508 1.914zm-38.422-53.046a24.053 24.053 0 0 1 -5.268-.582l-5.629-5.629a61.157 61.157 0 0 0 -11.436-8.993 23.954 23.954 0 0 1 1.266-20.265 39.716 39.716 0 0 0 22.77 2.951q.494-.079.985-.173a32.165 32.165 0 0 0 19.58 17.621 24.127 24.127 0 0 1 -22.268 15.07zm-8.608-95.682a24.028 24.028 0 0 1 27.772 25.887 8 8 0 0 0 9.585 8.563c.221-.046.441-.091.665-.128a16 16 0 1 1 -13.212 18.374c-.037-.224-.064-.448-.091-.672a8 8 0 0 0 -11.165-6.373 24.1 24.1 0 0 1 -5.825 1.722 24 24 0 1 1 -7.733-47.373zm-24.212 92.907c.173.109.352.2.533.3a44.893 44.893 0 0 1 10.076 7.578l7.069 7.069.037.037 37.371 37.371-4.967 9.933-4.4 8.8-16.459-10.973a8 8 0 0 0 -12.028 4.126l-14.178 42.534h-55.134l28.49-85.47a8 8 0 0 0 -10.561-9.958l-29.029 11.612v-14.767l25.541-10.217a44.833 44.833 0 0 1 37.639 2.025z"/><path d="m192 272a8 8 0 0 0 -8-8h-32a8 8 0 0 0 0 16h32a8 8 0 0 0 8-8z"/><path d="m120 280a8 8 0 0 0 0-16h-16a8 8 0 0 0 0 16z"/><path d="m128 208h-48a8 8 0 0 0 0 16h48a8 8 0 0 0 0-16z"/><path d="m48 208h-16a8 8 0 0 0 0 16h16a8 8 0 0 0 0-16z"/><path d="m88 320a8 8 0 0 0 8 8h48a8 8 0 0 0 0-16h-48a8 8 0 0 0 -8 8z"/><path d="m40 320a8 8 0 0 0 8 8h16a8 8 0 0 0 0-16h-16a8 8 0 0 0 -8 8z"/></svg>