<svg id="Layer_5" enable-background="new 0 0 64 64" height="512" viewBox="0 0 64 64" width="512" xmlns="http://www.w3.org/2000/svg"><g><g><g><path d="m19 61v1c-3.59 0-6.84-1.46-9.19-3.81s-3.81-5.6-3.81-9.19v-2h-3l6-8 6 8h-3v2.46c0 4.66 2.5 8.97 6.55 11.28z" fill="#ff826e"/></g><g><path d="m44 17-6 8-6-8h3v-2.46c0-4.66-2.5-8.97-6.55-11.28l-.45-.26v-1c3.59 0 6.84 1.46 9.19 3.81s3.81 5.6 3.81 9.19v2z" fill="#ff826e"/></g><g><path d="m58 62h-4v-2-10-2h4 4v14z" fill="#4fc1e9"/></g><g><path d="m20 3-3 9h-8l-3-8 6-1 2 3 2-4z" fill="#a0d468"/></g><g><path d="m22.08 19.25c1.25 1.79 1.92 3.92 1.92 6.11 0 5.87-4.77 10.64-10.64 10.64h-.72c-2.94 0-5.6-1.19-7.52-3.12-1.93-1.92-3.12-4.58-3.12-7.52 0-2.19.67-4.32 1.92-6.11l5.08-7.25h8z" fill="#b4dd7f"/></g><g><path d="m34 54c-1.1 0-2.1-.45-2.83-1.17-.72-.73-1.17-1.73-1.17-2.83s.9-2 2-2h6 6 1.18c1.19 0 2.35.35 3.33 1.01l1.49.99h4v10h-23.83c-2.62 0-5.06-1.27-6.56-3.41l-4.06-5.8c-.36-.52-.55-1.12-.55-1.75 0-1.68 1.36-3.04 3.04-3.04h.44c.96 0 1.86.45 2.43 1.22l3.89 5.18c.76 1.01 1.94 1.6 3.2 1.6z" fill="#f0d0b4"/></g><g><path d="m38 48h-6c-2.43-1.82-4-4.73-4-8 0-5.52 4.48-10 10-10s10 4.48 10 10c0 3.27-1.57 6.17-4 8z" fill="#fcd770"/></g></g><g><path d="m53 47v2h-2.697l-1.236-.824c-.815-.543-1.726-.895-2.678-1.061 1.677-1.966 2.611-4.456 2.611-7.115 0-6.065-4.935-11-11-11s-11 4.935-11 11c0 2.919 1.133 5.63 3.133 7.67-.685.551-1.133 1.385-1.133 2.33 0 .422.069.829.17 1.228l-3.458-4.612c-.759-1.012-1.968-1.616-3.233-1.616h-.438c-2.228 0-4.041 1.813-4.041 4.041 0 .834.253 1.636.73 2.317l4.062 5.803c1.683 2.404 4.439 3.839 7.373 3.839h22.835v2h10v-16zm-15-16c4.962 0 9 4.037 9 9 0 2.753-1.228 5.282-3.363 7h-4.637v-2h3v-3c0-1.654-1.346-3-3-3h-2c-.551 0-1-.448-1-1v-1h3c.551 0 1 .448 1 1h2c0-1.654-1.346-3-3-3v-2h-2v2h-3v3c0 1.654 1.346 3 3 3h2c.551 0 1 .448 1 1v1h-3c-.551 0-1-.448-1-1h-2c0 1.654 1.346 3 3 3v2h-4.637c-2.135-1.718-3.363-4.247-3.363-7 0-4.963 4.038-9 9-9zm-7.835 28c-2.282 0-4.426-1.116-5.734-2.985l-4.062-5.804c-.242-.344-.369-.749-.369-1.17 0-1.125.916-2.041 2.042-2.041h.438c.639 0 1.25.306 1.633.816l3.887 5.185c.94 1.252 2.435 1.999 4 1.999h1.972c.01 0 .02.003.03.003h.002l6.337-.002h.003c.801 0 1.554.313 2.121.879l.827.827 1.414-1.414-.827-.827c-.945-.944-2.2-1.465-3.534-1.465-.001 0-.003 0-.005 0h-1.341v-.001h-5.028c-.79-.008-1.532-.317-2.093-.876-.565-.567-.878-1.322-.878-2.124 0-.552.449-1 1-1h13.184c.99 0 1.949.29 2.773.84l1.74 1.16h3.303v8zm30.835 2h-2v-8h-2v8h-2v-12h2v2h2v-2h2z"/><path d="m12 27c-.551 0-1-.449-1-1h-2c0 1.654 1.346 3 3 3v2h2v-2h3v-3c0-1.654-1.346-3-3-3h-2c-.551 0-1-.449-1-1v-1h3c.551 0 1 .449 1 1h2c0-1.654-1.346-3-3-3v-2h-2v2h-3v3c0 1.654 1.346 3 3 3h2c.551 0 1 .449 1 1v1z"/><path d="m12.645 37h.711c6.42 0 11.644-5.224 11.644-11.645 0-2.401-.728-4.71-2.105-6.678l-4.787-6.839 3.182-9.547-5.826-1.457-1.588 3.176-1.402-2.104-7.837 1.307 3.242 8.645-4.774 6.819c-1.377 1.969-2.105 4.278-2.105 6.678 0 6.421 5.224 11.645 11.645 11.645zm-1.119-32.907 2.598 3.896 2.412-4.824 2.174.543-2.431 7.292h-6.586l-2.33-6.213zm-6.782 15.731 4.777-6.824h6.959l4.777 6.824c1.14 1.63 1.743 3.543 1.743 5.531 0 5.318-4.327 9.645-9.645 9.645h-.711c-5.317 0-9.644-4.327-9.644-9.645 0-1.988.603-3.901 1.744-5.531z"/><path d="m13 49.456v-1.456h4l-8-10.667-8 10.667h4v1c0 7.72 6.28 14 14 14h1v-2.58l-.954-.545c-3.729-2.131-6.046-6.123-6.046-10.419zm-6-.456v-3h-2l4-5.333 4 5.333h-2v3.456c0 4.507 2.186 8.728 5.791 11.34-5.565-1.039-9.791-5.934-9.791-11.796z"/><path d="m34 14.544v1.456h-4l8 10.667 8-10.667h-4v-1c0-7.72-6.28-14-14-14h-1v2.581l.954.544c3.729 2.131 6.046 6.124 6.046 10.419zm6 .456v3h2l-4 5.333-4-5.333h2v-3.456c0-4.506-2.187-8.727-5.792-11.34 5.566 1.04 9.792 5.934 9.792 11.796z"/></g></g></svg>